<svg xmlns="http://www.w3.org/2000/svg" viewBox="0 0 600 600" width="600" height="600" role="img" aria-label="Shampoo">
  <defs>
    <linearGradient id="bg" x1="0" y1="0" x2="0" y2="1"><stop offset="0" stop-color="#1c1713"/><stop offset="1" stop-color="#090807"/></linearGradient>
    <linearGradient id="au" x1="0" y1="0" x2="1" y2="1"><stop offset="0" stop-color="#f2dc9a"/><stop offset=".5" stop-color="#d4af37"/><stop offset="1" stop-color="#9c7d26"/></linearGradient>
  </defs>
  <rect width="600" height="600" fill="url(#bg)"/>
  <circle cx="300" cy="300" r="196" fill="none" stroke="#d4af37" stroke-opacity=".12"/>
  <circle cx="300" cy="300" r="168" fill="none" stroke="#d4af37" stroke-opacity=".06"/>
  <g fill="none" stroke="url(#au)" stroke-width="4" stroke-linecap="round" stroke-linejoin="round">
    <path d="M336 132h-46v30h46a34 34 0 0 1 34 34v14"/>
    <path d="M370 210h-52"/>
    <path d="M290 162v42"/>
    <path d="M262 204h76a44 44 0 0 1 44 44v152a30 30 0 0 1-30 30H248a30 30 0 0 1-30-30V248a44 44 0 0 1 44-44z"/>
    <rect x="246" y="272" width="108" height="86" rx="8" stroke-opacity=".5"/>
    <path d="M268 306h64M268 332h40" stroke-opacity=".45"/>
  </g>
</svg>
